<svg width="82" height="18" viewBox="0 0 82 18" fill="none" xmlns="http://www.w3.org/2000/svg">
<g opacity="0.1" clip-path="url(#clip0_1083_588)">
<path d="M13.663 6.64263C13.663 9.57041 11.6481 12.0574 8.8463 12.9074C8.21667 13.0963 7.52407 13.1908 6.83148 13.1908C3.0537 13.1908 0 10.263 0 6.64263L0 6.39078C0.125926 2.89633 3.14815 0.0944824 6.83148 0.0944824C8.40556 0.0944824 9.88519 0.598186 11.0185 1.47967L11.05 1.44819C11.3019 1.63707 11.5222 1.82596 11.7426 2.01485C11.0185 2.613 10.137 3.02226 9.19259 3.14819C8.5 2.77041 7.68148 2.51856 6.83148 2.51856C4.53333 2.51856 2.67593 4.25004 2.51852 6.39078V6.64263C2.51852 8.94078 4.43889 10.7667 6.83148 10.7667C7.02037 10.7667 7.24074 10.7667 7.42963 10.7352C8.81481 10.5463 10.0111 9.72782 10.6407 8.563H7.1463C7.20926 7.77596 7.46111 7.02041 7.87037 6.39078L13.663 6.39078V6.64263Z" fill="#191140"/>
<path d="M44.3574 2.73894V0.975979H44.2945C43.5074 1.03894 42.7833 1.25931 42.1537 1.60561V3.36857C42.7833 3.02228 43.5074 2.80191 44.2945 2.73894H44.3574Z" fill="#191140"/>
<path d="M19.3296 4.50194V4.34453C19.2667 4.34453 19.2037 4.31305 19.1722 4.28157H18.9204C17.5667 4.28157 16.6537 4.81675 16.6537 4.81675V3.99823H16.5593C15.8037 4.09268 15.0796 4.31305 14.45 4.69082V12.9705C14.7019 13.0334 15.0167 13.0649 15.3 13.0649H15.7093C16.0241 13.0649 16.3389 13.0019 16.6222 12.939V8.68897C16.6222 8.37416 16.6852 8.09082 16.7796 7.83897C16.9056 7.58712 17.0315 7.33527 17.2204 7.14638C17.4093 6.95749 17.6296 6.80008 17.85 6.70564C17.9746 6.6309 18.316 6.59559 18.5778 6.56851C18.6468 6.56138 18.7105 6.55479 18.763 6.54823C19.0778 5.95008 19.2982 5.22601 19.3296 4.50194Z" fill="#191140"/>
<path d="M44.3574 3.99823V12.9075H44.2944C43.9481 12.9705 43.6019 13.0334 43.2241 13.0334C42.8778 13.0334 42.5 13.0019 42.1852 12.9075V4.62786C42.8148 4.28157 43.5704 4.0612 44.3574 3.99823Z" fill="#191140"/>
<path d="M54.3056 12.939V7.61861C54.2426 6.20194 53.2352 5.06861 52.1963 4.56491C51.787 4.4075 51.3778 4.28157 50.9056 4.25009H50.2759C49.9926 4.28157 49.7093 4.31305 49.4574 4.4075C49.0167 4.53342 48.6074 4.7538 48.2611 5.03713V3.99824L48.2282 3.99814C47.939 3.99683 47.0853 3.99298 46.0574 4.62787V12.9075C46.4037 13.0019 46.7815 13.0334 47.1593 13.0334C47.537 13.0334 47.8833 12.9705 48.2296 12.9075L48.2296 8.53157C48.2296 8.27972 48.2926 8.02787 48.3871 7.77602C48.4815 7.52417 48.6074 7.27231 48.7963 7.08342C48.9852 6.86305 49.2056 6.70565 49.4259 6.6112H49.4574C49.6778 6.51676 49.9296 6.45379 50.1815 6.45379C50.4333 6.45379 50.6852 6.51676 50.937 6.64268C51.1889 6.76861 51.3778 6.92602 51.5667 7.11491C51.7241 7.3038 51.8815 7.55565 51.9759 7.8075C52.0704 8.05935 52.1333 8.3112 52.1333 8.56306V12.9075C52.4796 13.0019 52.8574 13.0334 53.2667 13.0334C53.613 13.0334 53.9593 13.0019 54.3056 12.939Z" fill="#191140"/>
<path d="M41.3981 4.25007L39.8241 8.68896L38.3129 12.9704L38.2815 13.0334H38.2185C37.8407 13.0964 37.4944 13.1278 37.1167 13.1278H36.8018C36.6339 13.1278 36.466 13.0999 36.2981 13.0719C36.2142 13.0579 36.1302 13.0439 36.0463 13.0334L35.6685 11.7112L35.0704 9.66488L34.6611 8.24822L33.4963 12.1834L33.2759 12.9704C33.1815 12.9862 33.0949 13.0019 33.0084 13.0176C32.9218 13.0334 32.8351 13.0491 32.7407 13.0649C32.5204 13.0964 32.3315 13.0964 32.1111 13.0964C31.7648 13.0964 31.4185 13.0649 31.1037 13.0019H31.0407L31.0092 12.939L29.5296 8.50007L28.0815 4.18711C28.4278 4.09266 28.8055 4.06118 29.2148 4.06118C29.6241 4.06118 30.0333 4.12414 30.4111 4.21859L30.8833 5.69822L32.1111 9.6334L33.087 5.82414L33.4963 4.18711C33.8741 4.09266 34.2518 4.06118 34.6296 4.06118C35.0074 4.06118 35.3852 4.09266 35.7315 4.18711L36.1722 5.95007L37.0852 9.6334L38.3759 5.69822L38.8481 4.21859C39.2574 4.12414 39.6981 4.06118 40.1389 4.06118C40.244 4.07432 40.3436 4.08609 40.4389 4.09735C40.8003 4.14003 41.0992 4.17534 41.3981 4.25007Z" fill="#191140"/>
<path fill-rule="evenodd" clip-rule="evenodd" d="M19.2667 8.563C19.2667 6.04448 21.2815 4.02967 23.8 4.02967C26.3185 4.02967 28.3333 6.04448 28.3333 8.563C28.3333 11.0815 26.287 13.0963 23.8 13.0963C21.2815 13.0963 19.2667 11.0815 19.2667 8.563ZM21.5963 8.563C21.5963 9.79078 22.5722 10.7667 23.8 10.7667C25.0278 10.7667 26.0037 9.7593 26.0037 8.563C26.0037 7.33522 25.0278 6.3593 23.8 6.3593C22.5722 6.3593 21.5963 7.33522 21.5963 8.563Z" fill="#191140"/>
<path fill-rule="evenodd" clip-rule="evenodd" d="M61.7037 5.10008V4.65934C62.3648 4.28157 63.1204 4.0612 63.8759 3.99823V13.6001C63.75 14.7964 63.1204 15.8038 62.2074 16.4649C61.5778 16.9056 60.7592 17.189 59.9092 17.189C58.3667 17.189 57.0444 16.3075 56.3833 15.0168C56.887 14.8279 57.4222 14.7019 57.9574 14.6705H58.5555C58.9018 14.9538 59.3426 15.1427 59.8148 15.1427C60.0037 15.1427 60.1611 15.1112 60.3185 15.0797C61.1055 14.8593 61.6722 14.1667 61.7037 13.3167V12.7186C61.0426 13.1279 60.2555 13.3482 59.437 13.3482C56.9815 13.3482 54.9981 11.3649 54.9981 8.90934C54.9981 6.45379 56.9815 4.47045 59.437 4.47045C60.2555 4.47045 61.0426 4.69082 61.7037 5.10008ZM57.2333 8.94082C57.2333 10.1056 58.1778 11.0501 59.3426 11.0501C60.5074 11.0501 61.4518 10.1056 61.4518 8.94082C61.4518 7.77601 60.5074 6.83157 59.3426 6.83157C58.1778 6.83157 57.2333 7.77601 57.2333 8.94082Z" fill="#191140"/>
<path d="M67.9371 12.9074V1.44187e-05C67.6852 -0.0314671 66.8037 -0.031467 65.7648 0.629644V12.9074C66.0796 13.0019 66.4259 13.0333 66.8037 13.0333C67.1815 13.0333 67.5278 12.9704 67.8741 12.9074H67.9371Z" fill="#FC5F3A"/>
<path fill-rule="evenodd" clip-rule="evenodd" d="M69.0074 6.57961C69.0074 2.99072 71.9037 0.0944282 75.4926 0.0944282C79.0815 0.0944282 81.9778 2.99072 81.9778 6.57961C81.9778 10.1685 79.0815 13.0648 75.4926 13.0648C71.9037 13.0648 69.0074 10.1685 69.0074 6.57961ZM71.5259 6.54813C71.5259 8.75183 73.3204 10.5148 75.4926 10.5148C77.6963 10.5148 79.4593 8.75183 79.4593 6.54813C79.4593 4.34443 77.6963 2.58147 75.4926 2.58147C73.2889 2.58147 71.5259 4.34443 71.5259 6.54813Z" fill="#FC5F3A"/>
</g>
<defs>
<clipPath id="clip0_1083_588">
<rect width="81.9778" height="17.2204" fill="white"/>
</clipPath>
</defs>
</svg>
